<?xml version="1.0" encoding="UTF-8"?>
<svg version="1.1" xmlns="http://www.w3.org/2000/svg" width="500" height="500">
<path d="M0 0 C3.4777493 1.56011183 6.27224027 3.63172326 9.25 6 C10.14203125 6.70125 11.0340625 7.4025 11.953125 8.125 C12.62859375 8.74375 13.3040625 9.3625 14 10 C14 10.66 14 11.32 14 12 C14.57878906 12.26039063 15.15757812 12.52078125 15.75390625 12.7890625 C18.15195442 14.08192325 19.92218697 15.54725075 21.9375 17.375 C24.24910517 19.45328427 26.53433156 21.41188058 29 23.3125 C29.66 23.869375 30.32 24.42625 31 25 C31 25.66 31 26.32 31 27 C31.57878906 27.26039063 32.15757812 27.52078125 32.75390625 27.7890625 C35.15195442 29.08192325 36.92218697 30.54725075 38.9375 32.375 C41.24910517 34.45328427 43.53433156 36.41188058 46 38.3125 C46.99 39.1478125 46.99 39.1478125 48 40 C48 40.66 48 41.32 48 42 C48.598125 42.268125 49.19625 42.53625 49.8125 42.8125 C52.06051925 44.03285331 53.37726608 45.03426301 55 47 C55.43237305 48.99291992 55.43237305 48.99291992 55.51171875 51.23046875 C55.54716797 52.03291016 55.58261719 52.83535156 55.61914062 53.66210938 C55.64169922 54.49548828 55.66425781 55.32886719 55.6875 56.1875 C55.72166016 57.03248047 55.75582031 57.87746094 55.79101562 58.74804688 C55.87341471 60.83156649 55.93838645 62.91576216 56 65 C56.9178125 64.07316406 57.835625 63.14632812 58.78125 62.19140625 C60.01994612 60.98086232 61.2595796 59.77127703 62.5 58.5625 C63.40105469 57.64500977 63.40105469 57.64500977 64.3203125 56.70898438 C68.79814421 52.39788044 71.72616147 50.94771801 78 51 C80.98635023 52.2730275 81.83026773 53.34207797 84 56 C84.8055735 61.07511305 84.55355511 62.96669713 82.125 67.5 C81.42375 68.325 80.7225 69.15 80 70 C79.34 70 78.68 70 78 70 C77.34 71.65 76.68 73.3 76 75 C75.34 75 74.68 75 74 75 C73.6596875 76.0828125 73.6596875 76.0828125 73.3125 77.1875 C71.74378003 80.5490428 69.64358778 82.42088997 67 85 C66.443125 85.928125 65.88625 86.85625 65.3125 87.8125 C64.879375 88.534375 64.44625 89.25625 64 90 C63.34 90 62.68 90 62 90 C61.34 91.65 60.68 93.3 60 95 C59.34 95 58.68 95 58 95 C57.34 96.65 56.68 98.3 56 100 C55.34 100 54.68 100 54 100 C53.34 101.65 52.68 103.3 52 105 C51.34 105 50.68 105 50 105 C49.34 106.65 48.68 108.3 48 110 C47.34 110 46.68 110 46 110 C45.814375 110.61875 45.62875 111.2375 45.4375 111.875 C43.70034453 114.44296896 42.25048814 114.85014839 39.31317139 115.6116333 C34.23804577 116.46371447 29.07703092 116.27768586 23.9453125 116.2734375 C21.36588106 116.29372486 18.78645401 116.31457561 16.20703125 116.3359375 C12.16292518 116.36063325 8.11888421 116.3758539 4.07470703 116.38085938 C0.15634374 116.38687495 -3.76149055 116.42420803 -7.6796875 116.4609375 C-8.87995575 116.45589203 -10.080224 116.45084656 -11.31686401 116.44564819 C-20.0751507 116.54773119 -27.24496212 118.12605402 -34 124 C-36.87556264 122.69267989 -38.97103155 121.28988834 -41.22387695 119.08251953 C-42.12919914 118.20117844 -42.12919914 118.20117844 -43.05281067 117.30203247 C-44.01086861 116.35201859 -44.01086861 116.35201859 -44.98828125 115.3828125 C-45.65087448 114.72924774 -46.31346771 114.07568298 -46.99613953 113.40231323 C-48.39150009 112.02143652 -49.78408609 110.63775126 -51.17407227 109.25146484 C-53.31009554 107.127391 -55.46405887 105.02268091 -57.61914062 102.91796875 C-58.97249898 101.57406856 -60.32475167 100.2290538 -61.67578125 98.8828125 C-62.3246077 98.25351837 -62.97343414 97.62422424 -63.641922 96.9758606 C-64.22970932 96.38199554 -64.81749664 95.78813049 -65.4230957 95.17626953 C-66.20774956 94.39922165 -66.20774956 94.39922165 -67.008255 93.60647583 C-68 92 -68 92 -67.7474823 89.92208862 C-66.82008741 87.53736971 -65.58128592 86.03022508 -63.875 84.125 C-63.31554687 83.48820312 -62.75609375 82.85140625 -62.1796875 82.1953125 C-60 80 -60 80 -58.19848633 78.86450195 C-56.00609275 77.38623229 -54.5368474 76.16445495 -53 74 C-52.32785792 69.62879029 -52.69878533 65.34026012 -52.9375 60.9375 C-53.07828458 47.50950193 -53.07828458 47.50950193 -49.23046875 42.65234375 C-46.37267566 39.80098351 -43.20326489 37.45335123 -39.83935547 35.23193359 C-37.12370817 33.41309151 -34.67967335 31.2978936 -32.1875 29.1875 C-31.31222656 28.48496094 -30.43695313 27.78242188 -29.53515625 27.05859375 C-24.63231536 23.07739629 -19.90359945 18.90359945 -15.4375 14.4375 C-12.71751412 11.71751412 -9.84469143 9.23110603 -6.9375 6.71484375 C-4.5154765 4.57115763 -2.25104107 2.3213861 0 0 Z M-20 27 C-20.38133299 28.9914056 -20.71325582 30.99279077 -21 33 C-19.9404123 34.28322547 -19.9404123 34.28322547 -17.5 34.125 C-15.0595877 34.28322547 -15.0595877 34.28322547 -14 33 C-13.83333333 30.5 -13.83333333 30.5 -14 28 C-15.06645115 26.70366379 -15.06645115 26.70366379 -17.5625 26.9375 C-18.366875 26.958125 -19.17125 26.97875 -20 27 Z M-19 36 C-21.2882734 37.83975533 -21.2882734 37.83975533 -21.125 40.6328125 C-21.08375 41.78523438 -21.0425 42.93765625 -21 44.125 C-20.75383799 55.12536467 -21.97786887 66.05966293 -23 77 C-21.515 76.505 -21.515 76.505 -20 76 C-19.34 72.7 -18.68 69.4 -18 66 C-17.67 68.31 -17.34 70.62 -17 73 C-16.01 73 -15.02 73 -14 73 C-14.01047363 72.26362305 -14.02094727 71.52724609 -14.03173828 70.76855469 C-14.07333702 67.42907124 -14.09933864 64.08964235 -14.125 60.75 C-14.14175781 59.59113281 -14.15851563 58.43226563 -14.17578125 57.23828125 C-14.18222656 56.12324219 -14.18867188 55.00820312 -14.1953125 53.859375 C-14.20578613 52.83295898 -14.21625977 51.80654297 -14.22705078 50.74902344 C-14 48 -14 48 -12.93310547 45.86816406 C-11.63413885 43.76478177 -11.63413885 43.76478177 -12.875 40.25 C-13.24625 39.1775 -13.6175 38.105 -14 37 C-16.39719432 36.32041397 -16.39719432 36.32041397 -19 36 Z M0 36 C-2.30671915 38.71549154 -2.30671915 38.71549154 -1.625 41.1875 C-1.41875 41.785625 -1.2125 42.38375 -1 43 C0.65614657 43.38218767 2.32457024 43.71395102 4 44 C5.27003323 42.94689723 5.27003323 42.94689723 5.1875 40.5625 C5.26839983 37.83265325 5.26839983 37.83265325 3 36 C2.01 36 1.02 36 0 36 Z M0 45 C-0.33 46.32 -0.66 47.64 -1 49 C-1.66 49 -2.32 49 -3 49 C-2.67 51.64 -2.34 54.28 -2 57 C-2.78375 57.103125 -3.5675 57.20625 -4.375 57.3125 C-7.33045181 57.77595022 -7.33045181 57.77595022 -9 61 C-7.33075929 64.04134491 -7.33075929 64.04134491 -5 65 C-7.31 65 -9.62 65 -12 65 C-11.67 66.32 -11.34 67.64 -11 69 C-11 68.34 -11 67.68 -11 67 C-8.69 67 -6.38 67 -4 67 C-4 67.66 -4 68.32 -4 69 C-3.34 69 -2.68 69 -2 69 C-1.67 69.99 -1.34 70.98 -1 72 C-0.67 70.35 -0.34 68.7 0 67 C5.75 67.75 5.75 67.75 8 70 C8 69.01 8 68.02 8 67 C11.375 66.8125 11.375 66.8125 15 67 C15.66 67.99 16.32 68.98 17 70 C17.33 67.69 17.66 65.38 18 63 C18.99 66.3 19.98 69.6 21 73 C21.99 73 22.98 73 24 73 C23.79861699 70.89299274 23.56287227 68.7892489 23.3125 66.6875 C23.18488281 65.51574219 23.05726563 64.34398437 22.92578125 63.13671875 C22.28695928 59.84076701 22.28695928 59.84076701 19.5625 58.125 C17.35599526 57.1562906 15.36400295 56.43777832 13 56 C13.33 54.35 13.66 52.7 14 51 C10.7 50.67 7.4 50.34 4 50 C3.67 48.35 3.34 46.7 3 45 C2.01 45 1.02 45 0 45 Z M-12 46 C-12 46.66 -12 47.32 -12 48 C-9.36 47.67 -6.72 47.34 -4 47 C-3.67 47.66 -3.34 48.32 -3 49 C-3 48.01 -3 47.02 -3 46 C-5.97 46 -8.94 46 -12 46 Z M-11 62 C-10 64 -10 64 -10 64 Z M-9 68 C-8 70 -8 70 -8 70 Z M-11 69 C-10 71 -10 71 -10 71 Z M-8 70 C-8.33 71.32 -8.66 72.64 -9 74 C-8.01 74.495 -8.01 74.495 -7 75 C-7 74.34 -7 73.68 -7 73 C-6.34 72.67 -5.68 72.34 -5 72 C-5.99 71.34 -6.98 70.68 -8 70 Z M2 71 C2 71.66 2 72.32 2 73 C2.66 73 3.32 73 4 73 C4 72.34 4 71.68 4 71 C3.34 71 2.68 71 2 71 Z M16 72 C17 74 17 74 17 74 Z M18 72 C19 74 19 74 19 74 Z M25 72 C26 74 26 74 26 74 Z M13 73 C14 75 14 75 14 75 Z M-16 75 C-16 75.66 -16 76.32 -16 77 C-15.34 76.67 -14.68 76.34 -14 76 C-14.66 75.67 -15.32 75.34 -16 75 Z M-5 76 C-5 76.33 -5 76.66 -5 77 C-3.35 77 -1.7 77 0 77 C0 76.67 0 76.34 0 76 C-1.65 76 -3.3 76 -5 76 Z M10 94 C10 94.33 10 94.66 10 95 C11.65 95 13.3 95 15 95 C15 94.67 15 94.34 15 94 C13.35 94 11.7 94 10 94 Z " fill="#FDFEFE" transform="translate(242,156)"/>
<path d="M0 0 C2.15633166 1.21293656 3.69217468 2.663859 5.37890625 4.4609375 C7.51958836 6.65836058 9.7842301 8.69587707 12.0625 10.75 C12.89910156 11.50539062 13.73570312 12.26078125 14.59765625 13.0390625 C16.92545057 15.12683392 16.92545057 15.12683392 19.30859375 16.7734375 C19.86675781 17.21945313 20.42492187 17.66546875 21 18.125 C21 18.785 21 19.445 21 20.125 C21.556875 20.36347656 22.11375 20.60195312 22.6875 20.84765625 C25.52296753 22.41386889 27.62722978 24.35973009 30 26.5625 C33.52881363 29.82933082 33.52881363 29.82933082 37.3125 32.78515625 C37.869375 33.22730469 38.42625 33.66945312 39 34.125 C39 34.785 39 35.445 39 36.125 C39.57878906 36.38539063 40.15757812 36.64578125 40.75390625 36.9140625 C43.15195442 38.20692325 44.92218697 39.67225075 46.9375 41.5 C49.24910517 43.57828427 51.53433156 45.53688058 54 47.4375 C54.99 48.2728125 54.99 48.2728125 56 49.125 C56 49.785 56 50.445 56 51.125 C56.55816406 51.36734375 57.11632812 51.6096875 57.69140625 51.859375 C64.51944306 55.60266422 70.28559932 61.99627911 75 68.125 C72.36 71.095 69.72 74.065 67 77.125 C61.33057823 73.01955665 56.2208823 68.66760503 51.1875 63.8125 C45.73441675 58.61775744 40.2004167 53.7236974 34.30859375 49.03125 C31.62992411 46.81942126 29.26134534 44.41340738 26.8515625 41.91796875 C23.77776019 38.94143866 20.39273764 36.35068757 17.05078125 33.68359375 C14.79195215 31.78918522 12.66319097 29.88649025 10.54296875 27.84765625 C9.96369629 27.29295654 9.38442383 26.73825684 8.78759766 26.16674805 C7.65322849 25.07074772 6.52881232 23.96433453 5.41552734 22.84692383 C2.57965369 19.93915624 2.57965369 19.93915624 -1.21484375 19.12890625 C-3.93179369 20.64492864 -5.84127112 22.90946246 -8 25.125 C-8.66 25.125 -9.32 25.125 -10 25.125 C-10 25.785 -10 26.445 -10 27.125 C-11.6376272 28.57902342 -13.33734196 29.96348678 -15.0625 31.3125 C-18.37548964 33.95867134 -21.56649342 36.56239044 -24.5 39.625 C-28.95021613 44.23606731 -34.00816426 48.12246907 -39 52.125 C-41.86249581 54.44140122 -44.64269402 56.76769402 -47.25 59.375 C-53.72124634 65.84624634 -60.54448828 71.81450981 -68 77.125 C-68.40992188 76.63128906 -68.81984375 76.13757813 -69.2421875 75.62890625 C-69.78101563 74.98824219 -70.31984375 74.34757812 -70.875 73.6875 C-71.40867188 73.04941406 -71.94234375 72.41132813 -72.4921875 71.75390625 C-73.9222757 70.01694996 -73.9222757 70.01694996 -76 69.125 C-76 68.135 -76 67.145 -76 66.125 C-74.12109375 64.35546875 -74.12109375 64.35546875 -71.4375 62.3125 C-66.50448851 58.41835269 -61.88101037 54.31505309 -57.3125 50 C-52.8782651 45.81987599 -48.43826363 41.67354745 -43.8203125 37.6953125 C-41.69348329 35.86058 -39.5966075 33.99417889 -37.5 32.125 C-34.69989058 29.63122734 -31.88963563 27.15057793 -29.0625 24.6875 C-25.15503605 21.2772084 -21.30577435 17.80440909 -17.45703125 14.328125 C-14.58320873 11.75127937 -11.67086995 9.22184575 -8.74609375 6.703125 C-7.13785961 5.24959795 -5.70200949 3.73147858 -4.25 2.125 C-2 0.125 -2 0.125 0 0 Z " fill="#FBFDFD" transform="translate(244,129.875)"/>
<path d="M0 0 C5.40428781 0.99863541 8.30461809 4.65925162 12.08789062 8.47094727 C12.90302628 9.27559921 13.71816193 10.08025116 14.55799866 10.9092865 C16.27579211 12.61423991 17.98587307 14.32699407 19.6887207 16.046875 C22.30128296 18.67646671 24.94895502 21.26659671 27.6015625 23.85571289 C29.26593424 25.51686068 30.92812044 27.18020173 32.58789062 28.84594727 C33.38355942 29.6191481 34.17922821 30.39234894 34.99900818 31.1889801 C40.34167916 36.67058641 40.34167916 36.67058641 40.50097656 41.50878906 C39.12527109 45.30746324 37.40215402 46.97876381 34.37304688 49.62329102 C33.58285156 50.49469727 32.79265625 51.36610352 31.97851562 52.26391602 C30.78162109 53.55555664 30.78162109 53.55555664 29.56054688 54.87329102 C28.77035156 55.74469727 27.98015625 56.61610352 27.16601562 57.51391602 C24.14669762 59.7942401 22.2117383 60.76310074 18.46704102 61.02758789 C14.0392966 60.17270335 11.37524574 56.48513974 8.49804688 53.24829102 C7.18969161 51.84320909 5.87986685 50.43949362 4.56835938 49.03735352 C4.00133301 48.40780762 3.43430664 47.77826172 2.85009766 47.12963867 C1.42661708 45.5144394 1.42661708 45.5144394 -0.62695312 44.62329102 C-0.62695312 43.96329102 -0.62695312 43.30329102 -0.62695312 42.62329102 C-1.51640625 42.24043945 -1.51640625 42.24043945 -2.42382812 41.84985352 C-4.85369802 40.49705361 -6.11931578 39.13987826 -7.87695312 36.99829102 C-11.02782279 33.24043563 -14.41269159 29.89312543 -18.02539062 26.58032227 C-19.97660073 24.1960387 -20.5015055 22.69675783 -20.62695312 19.62329102 C-19.58007812 17.77172852 -19.58007812 17.77172852 -17.87695312 15.99829102 C-17.23371094 15.32540039 -16.59046875 14.65250977 -15.92773438 13.95922852 C-15.16847656 13.18836914 -14.40921875 12.41750977 -13.62695312 11.62329102 C-12.72255356 10.63819531 -11.82031753 9.6511102 -10.91992188 8.66235352 C-9.96953787 7.64798262 -9.01771936 6.63495378 -8.06445312 5.62329102 C-7.17628906 4.67454102 -6.288125 3.72579102 -5.37304688 2.74829102 C-2.62695312 0.62329102 -2.62695312 0.62329102 0 0 Z " fill="#FCFEFD" transform="translate(165.626953125,246.376708984375)"/>
<path d="M0 0 C1.39120471 0.00015906 2.78241534 0.00585033 4.17358398 0.01586914 C4.90463852 0.01728409 5.63569305 0.01869904 6.38890076 0.02015686 C8.73253406 0.02577131 11.07607313 0.03832617 13.41967773 0.05102539 C15.00496282 0.05603853 16.59024939 0.06060176 18.17553711 0.06469727 C22.06945383 0.07574542 25.96329979 0.09301967 29.85717773 0.11352539 C30.35217773 1.10352539 30.35217773 1.10352539 30.85717773 2.11352539 C30.19717773 2.44352539 29.53717773 2.77352539 28.85717773 3.11352539 C30.48758588 9.12429675 32.1286513 15.13016467 33.85717773 21.11352539 C34.51717773 21.11352539 35.17717773 21.11352539 35.85717773 21.11352539 C38.74397877 14.1800718 38.74397877 14.1800718 37.66967773 7.05102539 C36.17602716 4.05363568 36.17602716 4.05363568 33.85717773 3.11352539 C33.85717773 2.12352539 33.85717773 1.13352539 33.85717773 0.11352539 C39.13717773 0.11352539 44.41717773 0.11352539 49.85717773 0.11352539 C49.85717773 1.10352539 49.85717773 2.09352539 49.85717773 3.11352539 C49.19717773 3.77352539 48.53717773 4.43352539 47.85717773 5.11352539 C49.50717773 9.73352539 51.15717773 14.35352539 52.85717773 19.11352539 C55.43875742 16.53194571 55.99978217 14.20888474 57.10717773 10.73852539 C57.48358398 9.59641602 57.85999023 8.45430664 58.24780273 7.27758789 C59.23830661 3.86195822 59.23830661 3.86195822 56.85717773 0.11352539 C59.82717773 0.11352539 62.79717773 0.11352539 65.85717773 0.11352539 C65.04277335 3.37114292 64.11664512 5.9992973 62.79467773 9.05102539 C58.87914132 18.29860111 55.3995464 27.7182606 51.85717773 37.11352539 C50.86717773 37.11352539 49.87717773 37.11352539 48.85717773 37.11352539 C46.54717773 30.84352539 44.23717773 24.57352539 41.85717773 18.11352539 C40.30789638 20.43744742 39.22109956 22.38222487 38.13061523 24.90649414 C37.82124023 25.61870117 37.51186523 26.3309082 37.19311523 27.06469727 C36.71745117 28.17167969 36.71745117 28.17167969 36.23217773 29.30102539 C35.90733398 30.05061523 35.58249023 30.80020508 35.24780273 31.57250977 C34.44831512 33.41838559 33.65239821 35.26580723 32.85717773 37.11352539 C31.86717773 37.11352539 30.87717773 37.11352539 29.85717773 37.11352539 C29.32761475 35.72846802 29.32761475 35.72846802 28.78735352 34.31542969 C27.4753151 30.88675089 26.15843346 27.45994947 24.84008789 24.03369141 C24.27040657 22.55112577 23.70203622 21.0680557 23.13500977 19.58447266 C22.3192895 17.45088559 21.49885668 15.31916291 20.67749023 13.18774414 C20.42532745 12.52514084 20.17316467 11.86253754 19.9133606 11.17985535 C18.77069592 8.22719277 17.62343825 5.76291616 15.85717773 3.11352539 C14.53717773 3.44352539 13.21717773 3.77352539 11.85717773 4.11352539 C10.52691133 14.09052342 10.76214857 24.06967363 10.85717773 34.11352539 C12.17717773 34.44352539 13.49717773 34.77352539 14.85717773 35.11352539 C14.52717773 35.77352539 14.19717773 36.43352539 13.85717773 37.11352539 C11.23190585 37.16734645 8.60773061 37.20710852 5.98217773 37.23852539 C5.23581055 37.2552832 4.48944336 37.27204102 3.72045898 37.28930664 C1.76523312 37.30692129 -0.19024248 37.21672728 -2.14282227 37.11352539 C-2.80282227 36.45352539 -3.46282227 35.79352539 -4.14282227 35.11352539 C-2.82282227 34.45352539 -1.50282227 33.79352539 -0.14282227 33.11352539 C-0.04388774 29.03856436 0.02867468 24.96406883 0.0769043 20.88818359 C0.09701048 19.50199201 0.12430018 18.11588514 0.15893555 16.72998047 C0.20748999 14.73710633 0.22801745 12.7436115 0.24780273 10.75024414 C0.26875 9.55101318 0.28969727 8.35178223 0.3112793 7.11621094 C0.15544303 4.00212664 0.15544303 4.00212664 -2.16723633 2.19873047 C-2.81917969 1.84061279 -3.47112305 1.48249512 -4.14282227 1.11352539 C-3.14282227 0.11352539 -3.14282227 0.11352539 0 0 Z " fill="#C09F45" transform="translate(156.142822265625,310.886474609375)"/>
<path d="M0 0 C5.94 0 11.88 0 18 0 C17.67 0.99 17.34 1.98 17 3 C16.34 3 15.68 3 15 3 C14.9419228 7.08327357 14.90637751 11.16644083 14.875 15.25 C14.85824219 16.40886719 14.84148437 17.56773437 14.82421875 18.76171875 C14.81455078 20.43427734 14.81455078 20.43427734 14.8046875 22.140625 C14.78897705 23.68024902 14.78897705 23.68024902 14.77294922 25.25097656 C15.00611292 28.07401239 15.37054726 29.69199705 17 32 C20.95287962 33.11873951 23.10299979 33.4095001 26.875 31.6875 C29.0895931 30.17274837 29.0895931 30.17274837 30 28 C30.2687338 24.02640431 30.23157705 20.04416108 30.25 16.0625 C30.270625 14.95197266 30.29125 13.84144531 30.3125 12.69726562 C30.31765625 11.63314453 30.3228125 10.56902344 30.328125 9.47265625 C30.3374707 8.49562744 30.34681641 7.51859863 30.35644531 6.51196289 C29.94723194 3.62812976 29.25526145 2.76513285 27 1 C28 0 28 0 30.28515625 -0.09765625 C31.65994141 -0.08025391 31.65994141 -0.08025391 33.0625 -0.0625 C33.98160156 -0.05347656 34.90070313 -0.04445313 35.84765625 -0.03515625 C36.55792969 -0.02355469 37.26820313 -0.01195312 38 0 C38 0.99 38 1.98 38 3 C37.34 3.33 36.68 3.66 36 4 C35.9906543 4.69561035 35.98130859 5.3912207 35.97167969 6.10791016 C35.91776454 9.280975 35.83415827 12.4525991 35.75 15.625 C35.73582031 16.71941406 35.72164063 17.81382812 35.70703125 18.94140625 C35.51693429 25.21460588 35.25116799 29.24916115 31 34 C27.1203523 37.12527176 22.93314784 38.14094708 18 38 C13.47982475 37.16733614 10.13236923 36.18430913 6.90820312 32.81225586 C4.6798829 29.52822047 4.46807077 27.75459137 4.390625 23.82421875 C4.35839844 22.66728516 4.32617188 21.51035156 4.29296875 20.31835938 C4.27878906 19.12017578 4.26460938 17.92199219 4.25 16.6875 C4.20552734 14.8612207 4.20552734 14.8612207 4.16015625 12.99804688 C4.08958177 9.99863167 4.03682136 6.9999883 4 4 C2.68 3.34 1.36 2.68 0 2 C0 1.34 0 0.68 0 0 Z " fill="#C69F38" transform="translate(296,311)"/>
<path d="M0 0 C2.47595415 0.6017713 2.47595415 0.6017713 5.1875 -1.6875 C6.75920996 1.45591993 6.41925783 4.87021451 6.1875 8.3125 C5.8575 9.3025 5.5275 10.2925 5.1875 11.3125 C4.5275 11.3125 3.8675 11.3125 3.1875 11.3125 C2.2903125 9.889375 2.2903125 9.889375 1.375 8.4375 C-0.96546217 5.09398262 -1.88941355 4.15316138 -5.8125 3.3125 C-9.79488707 3.39377321 -11.28335139 3.78335139 -14.125 6.625 C-17.21843736 11.55158543 -17.35485222 16.61780168 -16.8125 22.3125 C-16.01078807 25.39815869 -14.98874868 28.35087386 -13.8125 31.3125 C-9.01285148 32.31378722 -5.24623866 33.00122225 -0.875 30.4375 C0.135625 29.73625 1.14625 29.035 2.1875 28.3125 C2.8475 27.9825 3.5075 27.6525 4.1875 27.3125 C4.6825 29.2925 4.6825 29.2925 5.1875 31.3125 C0.14413397 35.76252885 -3.95279316 37.60065855 -10.6875 37.25 C-17.56339225 36.34909243 -21.96111946 33.58044116 -26.3125 28.25 C-28.75884548 23.22566714 -28.64791389 17.73548844 -27.8125 12.3125 C-25.78627937 7.18881913 -22.50889662 3.21979314 -17.8125 0.3125 C-11.3852018 -2.23416533 -6.60105046 -1.61359011 0 0 Z " fill="#B89D5A" transform="translate(288.8125,311.6875)"/>
<path d="M0 0 C3 1 3 1 4.31860352 3.62036133 C4.75100342 4.7627124 5.18340332 5.90506348 5.62890625 7.08203125 C5.86407455 7.69261887 6.09924286 8.30320648 6.34153748 8.93229675 C7.09258874 10.88846199 7.8279468 12.85008717 8.5625 14.8125 C9.30378687 16.76286211 10.04823579 18.71198083 10.79417419 20.66056824 C11.47181119 22.43546638 12.1415013 24.21339248 12.81079102 25.99145508 C14.41317594 30.04528169 15.75533821 33.05030746 19 36 C18 37 18 37 14.40234375 37.09765625 C12.91403133 37.0909822 11.42573568 37.07902183 9.9375 37.0625 C8.79958008 37.05573242 8.79958008 37.05573242 7.63867188 37.04882812 C5.75908129 37.0370068 3.87953101 37.01907078 2 37 C2 36.01 2 35.02 2 34 C2.99 34 3.98 34 5 34 C4.34 31.69 3.68 29.38 3 27 C-1.95 27.495 -1.95 27.495 -7 28 C-7.66 29.98 -8.32 31.96 -9 34 C-7.68 34.33 -6.36 34.66 -5 35 C-7 37 -7 37 -9.3828125 37.1953125 C-10.74019531 37.16050781 -10.74019531 37.16050781 -12.125 37.125 C-13.03507813 37.10695313 -13.94515625 37.08890625 -14.8828125 37.0703125 C-15.58148438 37.04710937 -16.28015625 37.02390625 -17 37 C-17 36.01 -17 35.02 -17 34 C-16.40147217 33.41629639 -15.80294434 32.83259277 -15.1862793 32.23120117 C-12.48262976 29.47199926 -11.45301193 26.88168936 -10.01953125 23.30078125 C-9.76121017 22.66512741 -9.5028891 22.02947357 -9.23674011 21.3745575 C-8.41904156 19.3575946 -7.61527113 17.33544471 -6.8125 15.3125 C-5.99638273 13.28001025 -5.17743085 11.24870585 -4.35612488 9.2183075 C-3.61604303 7.38503266 -2.88363972 5.54866364 -2.15161133 3.7121582 C-1 1 -1 1 0 0 Z M-3 16 C-4.485 19.465 -4.485 19.465 -6 23 C-4.87465895 24.35618499 -4.87465895 24.35618499 -1.9375 24.0625 C-0.968125 24.041875 0.00125 24.02125 1 24 C0.50168276 20.31245243 -0.10067643 18.39509338 -3 16 Z " fill="#BD9D4E" transform="translate(240,311)"/>
<path d="M0 0 C6.6 0 13.2 0 20 0 C21.50209043 4.50627128 21.34030455 8.44156837 20 13 C17.73132492 15.86538389 14.9115927 17.81984469 12 20 C10.15253875 21.62995872 8.31924774 23.27611018 6.5 24.9375 C5.6440625 25.70964844 4.788125 26.48179687 3.90625 27.27734375 C3.2771875 27.84582031 2.648125 28.41429687 2 29 C1.34 28.67 0.68 28.34 0 28 C0 18.76 0 9.52 0 0 Z " fill="#FCFDFD" transform="translate(190,140)"/>
<path d="M0 0 C2.97 0 5.94 0 9 0 C9 11.22 9 22.44 9 34 C5.7 34 2.4 34 -1 34 C-0.67 33.34 -0.34 32.68 0 32 C0.08639869 29.59161322 0.11567764 27.21266119 0.09765625 24.8046875 C0.09553383 23.74352219 0.09553383 23.74352219 0.09336853 22.66091919 C0.087766 20.39890331 0.07521318 18.13698602 0.0625 15.875 C0.05748532 14.34244935 0.05292236 12.80989714 0.04882812 11.27734375 C0.03779577 7.51819112 0.02052952 3.75911228 0 0 Z " fill="#C69F35" transform="translate(157,313)"/>
<path d="M0 0 C6.625 -0.25 6.625 -0.25 10 2 C10.33 1.34 10.66 0.68 11 0 C13.97 0 16.94 0 20 0 C20 0.99 20 1.98 20 3 C19.01 3.495 19.01 3.495 18 4 C18.33 4.53625 18.66 5.0725 19 5.625 C20.22699204 8.5391061 20.14233286 10.86867708 20 14 C9 14 9 14 6 13 C6 12.34 6 11.68 6 11 C5.34 11 4.68 11 4 11 C3.67 11.99 3.34 12.98 3 14 C2.01 13.67 1.02 13.34 0 13 C-1.0161692 8.37078475 -0.83796731 4.65537393 0 0 Z M9 6 C8.67 6.66 8.34 7.32 8 8 C8.66 8.66 9.32 9.32 10 10 C9.67 8.68 9.34 7.36 9 6 Z " fill="#B09F6F" transform="translate(313,359)"/>
<path d="M0 0 C0.66 0.33 1.32 0.66 2 1 C2 2.32 2 3.64 2 5 C-0.31 4.67 -2.62 4.34 -5 4 C-4.67 5.65 -4.34 7.3 -4 9 C-2.5459375 8.7215625 -2.5459375 8.7215625 -1.0625 8.4375 C0.4534375 8.2209375 0.4534375 8.2209375 2 8 C2.33 8.33 2.66 8.66 3 9 C3.99 6.03 4.98 3.06 6 0 C7.65 0 9.3 0 11 0 C11.6987693 1.76641683 12.38366583 3.53832664 13.0625 5.3125 C13.44535156 6.29863281 13.82820313 7.28476562 14.22265625 8.30078125 C15 11 15 11 14 14 C13.4225 13.649375 12.845 13.29875 12.25 12.9375 C9.5676725 11.81986354 8.70625246 12.15429611 6 13 C4.68 13 3.36 13 2 13 C1.01 13.495 1.01 13.495 0 14 C-5.17431193 14.44036697 -5.17431193 14.44036697 -7.875 13 C-9.68523932 9.78179676 -9.53967465 6.59783102 -9 3 C-6.87757591 -0.77319839 -4.02174082 -0.34227581 0 0 Z " fill="#B49C6B" transform="translate(297,359)"/>
<path d="M0 0 C1.37478516 0.01740234 1.37478516 0.01740234 2.77734375 0.03515625 C3.69644531 0.04417969 4.61554688 0.05320312 5.5625 0.0625 C6.27277344 0.07410156 6.98304688 0.08570313 7.71484375 0.09765625 C7.71484375 1.08765625 7.71484375 2.07765625 7.71484375 3.09765625 C6.72484375 3.59265625 6.72484375 3.59265625 5.71484375 4.09765625 C5.70549805 4.7932666 5.69615234 5.48887695 5.68652344 6.20556641 C5.63260829 9.37863125 5.54900202 12.55025535 5.46484375 15.72265625 C5.44357422 17.36427734 5.44357422 17.36427734 5.421875 19.0390625 C5.23177804 25.31226213 4.96601174 29.3468174 0.71484375 34.09765625 C-3.25057499 37.29202134 -7.31037208 37.96726876 -12.28515625 38.09765625 C-15.28515625 37.66015625 -15.28515625 37.66015625 -17.28515625 37.09765625 C-17.28515625 36.76765625 -17.28515625 36.43765625 -17.28515625 36.09765625 C-15.30515625 36.09765625 -13.32515625 36.09765625 -11.28515625 36.09765625 C-11.28515625 35.43765625 -11.28515625 34.77765625 -11.28515625 34.09765625 C-10.65867187 33.91589844 -10.0321875 33.73414063 -9.38671875 33.546875 C-8.56945312 33.29550781 -7.7521875 33.04414063 -6.91015625 32.78515625 C-6.09804688 32.54152344 -5.2859375 32.29789062 -4.44921875 32.046875 C-1.95330996 31.1839744 -1.95330996 31.1839744 -0.28515625 28.09765625 C0.1534213 24.11186352 0.03902001 20.10494857 0.02734375 16.09765625 C0.04345703 14.99164063 0.05957031 13.885625 0.07617188 12.74609375 C0.07681641 11.68648438 0.07746094 10.626875 0.078125 9.53515625 C0.08110596 8.56449219 0.08408691 7.59382813 0.0871582 6.59375 C-0.34017111 3.72882217 -1.0446296 2.85719726 -3.28515625 1.09765625 C-2.28515625 0.09765625 -2.28515625 0.09765625 0 0 Z " fill="#B19C70" transform="translate(326.28515625,310.90234375)"/>
<path d="M0 0 C1.39120471 0.00015906 2.78241534 0.00585033 4.17358398 0.01586914 C4.90463852 0.01728409 5.63569305 0.01869904 6.38890076 0.02015686 C8.73253406 0.02577131 11.07607313 0.03832617 13.41967773 0.05102539 C15.00496282 0.05603853 16.59024939 0.06060176 18.17553711 0.06469727 C22.06945383 0.07574542 25.96329979 0.09301967 29.85717773 0.11352539 C30.35217773 1.10352539 30.35217773 1.10352539 30.85717773 2.11352539 C26.56717773 1.78352539 22.27717773 1.45352539 17.85717773 1.11352539 C18.37280273 2.02102539 18.88842773 2.92852539 19.41967773 3.86352539 C20.85717773 7.11352539 20.85717773 7.11352539 19.85717773 11.11352539 C18.53717773 8.47352539 17.21717773 5.83352539 15.85717773 3.11352539 C14.53717773 3.44352539 13.21717773 3.77352539 11.85717773 4.11352539 C10.52691133 14.09052342 10.76214857 24.06967363 10.85717773 34.11352539 C12.17717773 34.44352539 13.49717773 34.77352539 14.85717773 35.11352539 C14.52717773 35.77352539 14.19717773 36.43352539 13.85717773 37.11352539 C11.23190585 37.16734645 8.60773061 37.20710852 5.98217773 37.23852539 C5.23581055 37.2552832 4.48944336 37.27204102 3.72045898 37.28930664 C1.76523312 37.30692129 -0.19024248 37.21672728 -2.14282227 37.11352539 C-2.80282227 36.45352539 -3.46282227 35.79352539 -4.14282227 35.11352539 C-2.82282227 34.45352539 -1.50282227 33.79352539 -0.14282227 33.11352539 C-0.04388774 29.03856436 0.02867468 24.96406883 0.0769043 20.88818359 C0.09701048 19.50199201 0.12430018 18.11588514 0.15893555 16.72998047 C0.20748999 14.73710633 0.22801745 12.7436115 0.24780273 10.75024414 C0.26875 9.55101318 0.28969727 8.35178223 0.3112793 7.11621094 C0.15544303 4.00212664 0.15544303 4.00212664 -2.16723633 2.19873047 C-2.81917969 1.84061279 -3.47112305 1.48249512 -4.14282227 1.11352539 C-3.14282227 0.11352539 -3.14282227 0.11352539 0 0 Z M0.85717773 2.11352539 C0.86241455 3.07242676 0.86765137 4.03132813 0.87304688 5.01928711 C0.89112452 8.57136098 0.90261988 12.12343076 0.91210938 15.67553711 C0.91714325 17.21395552 0.92397081 18.75236914 0.93261719 20.29077148 C0.94472412 22.49993065 0.95041542 24.70902665 0.95483398 26.91821289 C0.95999527 27.60785126 0.96515656 28.29748962 0.97047424 29.00802612 C0.97104944 33.88578198 0.97104944 33.88578198 -0.14282227 36.11352539 C3.15717773 36.11352539 6.45717773 36.11352539 9.85717773 36.11352539 C9.85717773 24.89352539 9.85717773 13.67352539 9.85717773 2.11352539 C6.88717773 2.11352539 3.91717773 2.11352539 0.85717773 2.11352539 Z " fill="#BAA46A" transform="translate(156.142822265625,310.886474609375)"/>
<path d="M0 0 C2.375 0.25 2.375 0.25 5 1 C6.3125 3.0625 6.3125 3.0625 7 5 C7.66 3.35 8.32 1.7 9 0 C10.65 0.33 12.3 0.66 14 1 C14 4.96 14 8.92 14 13 C12.68 13 11.36 13 10 13 C9.319375 13.20625 8.63875 13.4125 7.9375 13.625 C6 14 6 14 3 12 C3 12.66 3 13.32 3 14 C2.01 14 1.02 14 0 14 C-1.09321611 9.49048355 -2.13999677 4.27999354 0 0 Z " fill="#C19A3E" transform="translate(258,359)"/>
<path d="M0 0 C2.47595415 0.6017713 2.47595415 0.6017713 5.1875 -1.6875 C6.75920996 1.45591993 6.41925783 4.87021451 6.1875 8.3125 C5.8575 9.3025 5.5275 10.2925 5.1875 11.3125 C4.5275 11.3125 3.8675 11.3125 3.1875 11.3125 C2.2903125 9.889375 2.2903125 9.889375 1.375 8.4375 C-0.96546217 5.09398262 -1.88941355 4.15316138 -5.8125 3.3125 C-9.78048671 3.39347932 -11.26877811 3.75367472 -14.0625 6.625 C-15.98018153 9.45902842 -15.98018153 9.45902842 -17.8125 13.3125 C-17.8125 10.3425 -17.8125 7.3725 -17.8125 4.3125 C-18.988125 5.0240625 -18.988125 5.0240625 -20.1875 5.75 C-21.70198678 6.65148023 -23.2360897 7.52429485 -24.8125 8.3125 C-23.30623726 4.47837665 -21.21981799 2.58404533 -17.8125 0.3125 C-11.3852018 -2.23416533 -6.60105046 -1.61359011 0 0 Z " fill="#B9A15C" transform="translate(288.8125,311.6875)"/>
<path d="M0 0 C5.94 0 11.88 0 18 0 C17.67 0.99 17.34 1.98 17 3 C16.34 3 15.68 3 15 3 C14.94180527 7.06243957 14.90633785 11.12477146 14.875 15.1875 C14.85824219 16.33798828 14.84148437 17.48847656 14.82421875 18.67382812 C14.81455078 20.34155273 14.81455078 20.34155273 14.8046875 22.04296875 C14.78897705 23.57473755 14.78897705 23.57473755 14.77294922 25.13745117 C15.01000368 28.12612167 15.74382898 30.29423369 17 33 C15.68 32.34 14.36 31.68 13 31 C13 21.76 13 12.52 13 3 C11.02 3 9.04 3 7 3 C7.02281132 7.56360551 7.10014171 12.12470953 7.1875 16.6875 C7.19620117 18.62786133 7.19620117 18.62786133 7.20507812 20.60742188 C7.23408203 21.85458984 7.26308594 23.10175781 7.29296875 24.38671875 C7.3086792 25.53358154 7.32438965 26.68044434 7.34057617 27.86206055 C8.18169671 31.8646234 9.93424688 33.3950699 13 36 C9.04950269 34.71875763 7.12595877 33.58753164 5 30 C4.56762695 27.15917969 4.56762695 27.15917969 4.48828125 23.921875 C4.45283203 22.76171875 4.41738281 21.6015625 4.38085938 20.40625 C4.35830078 19.1996875 4.33574219 17.993125 4.3125 16.75 C4.27833984 15.52796875 4.24417969 14.3059375 4.20898438 13.046875 C4.12652838 10.03134154 4.05736799 7.01609806 4 4 C2.68 3.34 1.36 2.68 0 2 C0 1.34 0 0.68 0 0 Z " fill="#B49F64" transform="translate(296,311)"/>
<path d="M0 0 C3 1 3 1 4.60546875 4.09765625 C5.14470691 5.41446252 5.67157652 6.73638556 6.1875 8.0625 C6.46013672 8.70638672 6.73277344 9.35027344 7.01367188 10.01367188 C8.94195566 14.86096169 9.26115656 18.79427932 9 24 C7.02 23.34 5.04 22.68 3 22 C3.33 21.01 3.66 20.02 4 19 C3.01 19 2.02 19 1 19 C-2.20281689 16.07171027 -2.95409085 14.41318239 -3.4375 10.0625 C-3.25338762 6.18141106 -2.00485719 3.34142864 0 0 Z " fill="#C49E37" transform="translate(240,311)"/>
<path d="M0 0 C4.62 0 9.24 0 14 0 C14.33 1.32 14.66 2.64 15 4 C15.66 4 16.32 4 17 4 C17.33 2.68 17.66 1.36 18 0 C19.32 0 20.64 0 22 0 C20.46527032 4.72224516 18.76054874 9.35855331 17 14 C16.01 13.67 15.02 13.34 14 13 C13.05078125 10.93359375 13.05078125 10.93359375 12.3125 8.4375 C12.06113281 7.61121094 11.80976563 6.78492188 11.55078125 5.93359375 C11.36902344 5.29550781 11.18726563 4.65742188 11 4 C9.68 4 8.36 4 7 4 C7 6.97 7 9.94 7 13 C5.68 13 4.36 13 3 13 C3 10.03 3 7.06 3 4 C2.01 3.67 1.02 3.34 0 3 C0 2.01 0 1.02 0 0 Z " fill="#B29D66" transform="translate(204,359)"/>
<path d="M0 0 C5 1 5 1 7 3 C7.33 2.01 7.66 1.02 8 0 C9.32 0 10.64 0 12 0 C12 4.29 12 8.58 12 13 C10.68 13.33 9.36 13.66 8 14 C7.01 12.68 6.02 11.36 5 10 C4.34 11.32 3.68 12.64 3 14 C2.01 13.67 1.02 13.34 0 13 C0 8.71 0 4.42 0 0 Z " fill="#B19856" transform="translate(186,359)"/>
<path d="M0 0 C0.33 0 0.66 0 1 0 C1.28875 1.11375 1.5775 2.2275 1.875 3.375 C2.69241329 7.00291092 2.69241329 7.00291092 5 9 C4.625 11.125 4.625 11.125 4 13 C3.34 11.68 2.68 10.36 2 9 C1.66226563 9.5053125 1.32453125 10.010625 0.9765625 10.53125 C0.53054687 11.1809375 0.08453125 11.830625 -0.375 12.5 C-0.81585938 13.1496875 -1.25671875 13.799375 -1.7109375 14.46875 C-2.13632813 14.9740625 -2.56171875 15.479375 -3 16 C-3.66 16 -4.32 16 -5 16 C-4.67 16.66 -4.34 17.32 -4 18 C-0.7 18 2.6 18 6 18 C6 18.33 6 18.66 6 19 C3.03 19.33 0.06 19.66 -3 20 C-3.66 21.98 -4.32 23.96 -5 26 C-3.68 26.33 -2.36 26.66 -1 27 C-3 29 -3 29 -5.3828125 29.1953125 C-6.28773438 29.17210937 -7.19265625 29.14890625 -8.125 29.125 C-9.49011719 29.09792969 -9.49011719 29.09792969 -10.8828125 29.0703125 C-11.58148438 29.04710937 -12.28015625 29.02390625 -13 29 C-13 26 -13 26 -11.14746094 24.13769531 C-10.43879883 23.43225586 -9.73013672 22.72681641 -9 22 C-7.66554956 19.52363454 -7.66554956 19.52363454 -6.640625 16.796875 C-6.24746094 15.8171875 -5.85429687 14.8375 -5.44921875 13.828125 C-5.05347656 12.81234375 -4.65773437 11.7965625 -4.25 10.75 C-3.83878906 9.71875 -3.42757812 8.6875 -3.00390625 7.625 C-1.99334103 5.0868362 -0.99244726 2.54529047 0 0 Z " fill="#B39C65" transform="translate(236,319)"/>
<path d="M0 0 C0 2.97 0 5.94 0 9 C-0.66 9 -1.32 9 -2 9 C-1.91621094 9.68707031 -1.83242188 10.37414062 -1.74609375 11.08203125 C-1.64425781 11.98308594 -1.54242188 12.88414062 -1.4375 13.8125 C-1.33308594 14.70582031 -1.22867187 15.59914063 -1.12109375 16.51953125 C-1 19 -1 19 -2 22 C-4.0625 23.6875 -4.0625 23.6875 -6 25 C-8.16073695 21.49308963 -8.268848 18.63838074 -8.25 14.5625 C-8.25515625 13.45003906 -8.2603125 12.33757812 -8.265625 11.19140625 C-7.93541165 7.22398995 -7.04187808 4.31367236 -4.5625 1.1875 C-3 0 -3 0 0 0 Z " fill="#C59F36" transform="translate(271,316)"/>
<path d="M0 0 C0.66 0.33 1.32 0.66 2 1 C2 5.29 2 9.58 2 14 C0.741875 14.04125 -0.51625 14.0825 -1.8125 14.125 C-2.52019531 14.14820313 -3.22789062 14.17140625 -3.95703125 14.1953125 C-6 14 -6 14 -9 12 C-10.24531356 7.68929923 -10.14768444 4.95626081 -8 1 C-5.26094655 -0.36952673 -3.02912668 -0.12621361 0 0 Z M-5 4 C-5.33 5.65 -5.66 7.3 -6 9 C-4.68 9.33 -3.36 9.66 -2 10 C-2.66 9.67 -3.32 9.34 -4 9 C-4 7.35 -4 5.7 -4 4 C-4.33 4 -4.66 4 -5 4 Z M-2 4 C-1 6 -1 6 -1 6 Z " fill="#BDA15F" transform="translate(182,359)"/>
<path d="M0 0 C3.46093134 -0.19966912 6.2014503 -0.32761013 9.4375 1 C11.5552381 3.71070476 11.57130492 5.74871362 11.37890625 9.125 C11 11 11 11 9.4375 13 C6.17239929 14.3395285 3.49225533 14.26356644 0 14 C-1 13 -1 13 -1.125 9.25 C-1.09051205 6.05411684 -0.77827069 3.11308275 0 0 Z M3 4 C3 5.98 3 7.96 3 10 C4.32 9.67 5.64 9.34 7 9 C6.67 7.35 6.34 5.7 6 4 C5.01 4 4.02 4 3 4 Z " fill="#BAA053" transform="translate(155,359)"/>
<path d="M0 0 C2.36002096 1.54622063 2.90125807 2.7319862 3.875 5.375 C4.03673305 8.77139406 2.96039694 10.28560423 1 13 C0 14 0 14 -2.875 14.25 C-6 14 -6 14 -7.875 13 C-9.68523932 9.78179676 -9.53967465 6.59783102 -9 3 C-6.89283346 -0.74607384 -4.00604938 -0.50075617 0 0 Z M-5 4 C-6.01111093 7.04913228 -6.01111093 7.04913228 -5 10 C-3.68 10 -2.36 10 -1 10 C-1 8.02 -1 6.04 -1 4 C-2.32 4 -3.64 4 -5 4 Z " fill="#B59B5D" transform="translate(253,359)"/>
<path d="M0 0 C1.23556641 0.01740234 1.23556641 0.01740234 2.49609375 0.03515625 C3.32238281 0.04417969 4.14867187 0.05320312 5 0.0625 C5.63808594 0.07410156 6.27617187 0.08570313 6.93359375 0.09765625 C6.86140625 0.773125 6.78921875 1.44859375 6.71484375 2.14453125 C6.62203125 3.0365625 6.52921875 3.92859375 6.43359375 4.84765625 C6.34078125 5.729375 6.24796875 6.61109375 6.15234375 7.51953125 C5.87723062 10.3307046 5.87723062 10.3307046 5.93359375 14.09765625 C-0.21875 14.1953125 -0.21875 14.1953125 -2.06640625 14.09765625 C-3.06640625 13.09765625 -3.06640625 13.09765625 -3.19921875 10.41015625 C-3.19664062 9.31703125 -3.1940625 8.22390625 -3.19140625 7.09765625 C-3.19398438 6.00453125 -3.1965625 4.91140625 -3.19921875 3.78515625 C-3.0192129 0.14268492 -3.0192129 0.14268492 0 0 Z " fill="#AF9B6E" transform="translate(276.06640625,358.90234375)"/>
<path d="M0 0 C0.99 0 1.98 0 3 0 C3.33 1.32 3.66 2.64 4 4 C4.99 4 5.98 4 7 4 C7.33 2.68 7.66 1.36 8 0 C8.99 0 9.98 0 11 0 C11.33 4.29 11.66 8.58 12 13 C10.68 13.33 9.36 13.66 8 14 C8 12.35 8 10.7 8 9 C6.00016466 9.79117904 6.00016466 9.79117904 4 11 C3.67 11.99 3.34 12.98 3 14 C2.01 14 1.02 14 0 14 C0 9.38 0 4.76 0 0 Z " fill="#AE9B6B" transform="translate(231,359)"/>
<path d="M0 0 C2.64 0 5.28 0 8 0 C9.73807435 5.21422306 10.55087957 9.49120429 10 15 C8 17 8 17 6 18 C6 16.02 6 14.04 6 12 C5.34 12 4.68 12 4 12 C4 11.01 4 10.02 4 9 C3.34 9 2.68 9 2 9 C1.34 6.03 0.68 3.06 0 0 Z " fill="#C59F36" transform="translate(175,313)"/>
<path d="M0 0 C2.31 0 4.62 0 7 0 C7.75241109 3.65456815 8.40049704 7.31733897 9 11 C7.68 11 6.36 11 5 11 C5 10.34 5 9.68 5 9 C4.34 9 3.68 9 3 9 C2.67 9.99 2.34 10.98 2 12 C1.01 11.67 0.02 11.34 -1 11 C-1.33 9.02 -1.66 7.04 -2 5 C-1.34 5 -0.68 5 0 5 C0 3.35 0 1.7 0 0 Z " fill="#BC9C4A" transform="translate(314,361)"/>
<path d="M0 0 C2.97 0 5.94 0 9 0 C8.11249031 3.55003875 6.98841088 6.58216667 5.5625 9.9375 C4.00623617 13.61214087 2.46914055 17.28956595 1 21 C0.67 21 0.34 21 0 21 C-1.35519204 15.3328333 -0.55711611 11.76252586 1.50390625 6.33203125 C2.33279828 3.62637531 2.33279828 3.62637531 0 0 Z " fill="#B49E6A" transform="translate(213,311)"/>
<path d="M0 0 C2.97 0 5.94 0 9 0 C8.67 4.62 8.34 9.24 8 14 C7.34 13.34 6.68 12.68 6 12 C6.375 8.375 6.375 8.375 7 5 C5.68 5 4.36 5 3 5 C2.67 13.58 2.34 22.16 2 31 C1.67 31 1.34 31 1 31 C0.67 20.77 0.34 10.54 0 0 Z " fill="#C09F41" transform="translate(157,313)"/>
<path d="M0 0 C0.763125 0.185625 1.52625 0.37125 2.3125 0.5625 C5.08967375 1.22819173 5.08967375 1.22819173 8 0 C8 0.66 8 1.32 8 2 C9.65 2.33 11.3 2.66 13 3 C13 3.99 13 4.98 13 6 C7.72 6 2.44 6 -3 6 C-3 5.01 -3 4.02 -3 3 C-2.01 3 -1.02 3 0 3 C0 2.01 0 1.02 0 0 Z " fill="#C29E41" transform="translate(245,342)"/>
<path d="M0 0 C0.66 1.32 1.32 2.64 2 4 C-2.24065098 7.74175087 -5.78610694 10.13009762 -11.60546875 9.89453125 C-14.08204246 9.65351068 -16.53814682 9.36003386 -19 9 C-19 8.67 -19 8.34 -19 8 C-16.69 8 -14.38 8 -12 8 C-12 7.34 -12 6.68 -12 6 C-10.7625 5.566875 -9.525 5.13375 -8.25 4.6875 C-5.08403441 3.50868303 -2.56878575 2.24768753 0 0 Z " fill="#B29D66" transform="translate(292,339)"/>
<path d="M0 0 C1.32 0 2.64 0 4 0 C4.66 1.32 5.32 2.64 6 4 C6.66 3.34 7.32 2.68 8 2 C7.67 4.97 7.34 7.94 7 11 C4.69 10.67 2.38 10.34 0 10 C0 6.7 0 3.4 0 0 Z " fill="#C09B3F" transform="translate(259,360)"/>
<path d="M0 0 C0.99 0.33 1.98 0.66 3 1 C3.33 1.99 3.66 2.98 4 4 C4.66 4.33 5.32 4.66 6 5 C6 6.98 6 8.96 6 11 C5.34 11 4.68 11 4 11 C4 11.99 4 12.98 4 14 C3.34 14 2.68 14 2 14 C2 12.68 2 11.36 2 10 C1.34 10 0.68 10 0 10 C-0.66 7.69 -1.32 5.38 -2 3 C-1.34 3 -0.68 3 0 3 C0 2.01 0 1.02 0 0 Z " fill="#C69F37" transform="translate(185,331)"/>
<path d="M0 0 C0.66 0 1.32 0 2 0 C2.02465504 4.39656173 2.04283842 8.7930872 2.05493164 13.18969727 C2.05997121 14.68644918 2.06680287 16.18319616 2.07543945 17.67993164 C2.08752159 19.82699807 2.09323191 21.97399962 2.09765625 24.12109375 C2.10289307 25.4145874 2.10812988 26.70808105 2.11352539 28.04077148 C2 31 2 31 1 32 C4.96 32.33 8.92 32.66 13 33 C13.33 32.34 13.66 31.68 14 31 C14 31.99 14 32.98 14 34 C11.37472811 34.05382106 8.75055287 34.09358313 6.125 34.125 C5.37863281 34.14175781 4.63226563 34.15851563 3.86328125 34.17578125 C1.90805539 34.1933959 -0.04742021 34.10320189 -2 34 C-2.66 33.34 -3.32 32.68 -4 32 C-2.68 31.34 -1.36 30.68 0 30 C0 20.1 0 10.2 0 0 Z " fill="#B1A080" transform="translate(156,314)"/>
<path d="M0 0 C1.39120471 0.00015906 2.78241534 0.00585033 4.17358398 0.01586914 C4.90463852 0.01728409 5.63569305 0.01869904 6.38890076 0.02015686 C8.73253406 0.02577131 11.07607313 0.03832617 13.41967773 0.05102539 C15.00496282 0.05603853 16.59024939 0.06060176 18.17553711 0.06469727 C22.06945383 0.07574542 25.96329979 0.09301967 29.85717773 0.11352539 C30.35217773 1.10352539 30.35217773 1.10352539 30.85717773 2.11352539 C26.56717773 1.78352539 22.27717773 1.45352539 17.85717773 1.11352539 C18.37280273 2.02102539 18.88842773 2.92852539 19.41967773 3.86352539 C20.92980317 7.27772204 20.94502108 7.79956553 19.85717773 11.11352539 C19.59163086 10.54762695 19.32608398 9.98172852 19.05249023 9.39868164 C18.69928711 8.66520508 18.34608398 7.93172852 17.98217773 7.17602539 C17.63413086 6.44512695 17.28608398 5.71422852 16.92749023 4.96118164 C15.98868004 2.9502008 15.98868004 2.9502008 13.85717773 2.11352539 C11.48594528 1.88322584 9.10975831 1.70232597 6.73217773 1.55102539 C5.45084961 1.46723633 4.16952148 1.38344727 2.84936523 1.29711914 C1.36823242 1.20624023 1.36823242 1.20624023 -0.14282227 1.11352539 C-0.14282227 1.77352539 -0.14282227 2.43352539 -0.14282227 3.11352539 C-1.46282227 2.45352539 -2.78282227 1.79352539 -4.14282227 1.11352539 C-3.14282227 0.11352539 -3.14282227 0.11352539 0 0 Z " fill="#AEA281" transform="translate(156.142822265625,310.886474609375)"/>
<path d="M0 0 C0.99 0 1.98 0 3 0 C3.19456705 1.95764383 3.38044247 3.91615321 3.5625 5.875 C3.66691406 6.96554687 3.77132812 8.05609375 3.87890625 9.1796875 C4 12 4 12 3 14 C1.68 13.67 0.36 13.34 -1 13 C-1.02686553 11.02090602 -1.04633375 9.04171029 -1.0625 7.0625 C-1.07410156 5.96035156 -1.08570313 4.85820312 -1.09765625 3.72265625 C-1 1 -1 1 0 0 Z " fill="#B19B67" transform="translate(200,359)"/>
<path d="M0 0 C0.66 0.33 1.32 0.66 2 1 C1.67 2.65 1.34 4.3 1 6 C0.34 5.67 -0.32 5.34 -1 5 C-1.99 6.32 -2.98 7.64 -4 9 C-4 7.02 -4 5.04 -4 3 C-4.99 3.33 -5.98 3.66 -7 4 C-7.33 6.64 -7.66 9.28 -8 12 C-8.33 12 -8.66 12 -9 12 C-10.01661577 7.62855218 -10.16888759 4.99531924 -8 1 C-5.26094655 -0.36952673 -3.02912668 -0.12621361 0 0 Z " fill="#AA9962" transform="translate(182,359)"/>
<path d="M0 0 C1.65 0 3.3 0 5 0 C5.33 3.63 5.66 7.26 6 11 C3.03 10.505 3.03 10.505 0 10 C0 6.7 0 3.4 0 0 Z " fill="#BDA05D" transform="translate(303,359)"/>
<path d="M0 0 C0.66 0 1.32 0 2 0 C2.67756882 1.55780332 3.34159457 3.12150096 4 4.6875 C4.37125 5.55761719 4.7425 6.42773438 5.125 7.32421875 C6.01870488 10.0572002 6.16449676 12.14700934 6 15 C6.66 15 7.32 15 8 15 C7.67 13.35 7.34 11.7 7 10 C7.99 9.67 8.98 9.34 10 9 C10.66 8.34 11.32 7.68 12 7 C11.74337755 8.44010481 11.46909179 9.8770687 11.1875 11.3125 C11.03667969 12.11300781 10.88585937 12.91351563 10.73046875 13.73828125 C9.92427764 16.23445587 8.97947998 17.32422106 7 19 C4.05223604 12.80520671 1.82221376 6.61242722 0 0 Z " fill="#B59F65" transform="translate(199,330)"/>
<path d="M0 0 C0.33 0 0.66 0 1 0 C1 2.31 1 4.62 1 7 C1.66 7 2.32 7 3 7 C3.33 6.34 3.66 5.68 4 5 C4 5.66 4 6.32 4 7 C5.32 7 6.64 7 8 7 C8.33 5.68 8.66 4.36 9 3 C9.99 3.99 10.98 4.98 12 6 C10.125 9.875 10.125 9.875 9 11 C6.00105039 11.26077823 3.81996705 11.43731576 1.125 10 C-0.70488947 6.74686316 -0.18128355 3.68609891 0 0 Z " fill="#B49C62" transform="translate(244,362)"/>
<path d="M0 0 C0.99 0 1.98 0 3 0 C3 4.62 3 9.24 3 14 C2.01 14 1.02 14 0 14 C-1.31164842 11.37670316 -1.13262846 9.36301375 -1.125 6.4375 C-1.12757813 5.44621094 -1.13015625 4.45492188 -1.1328125 3.43359375 C-1 1 -1 1 0 0 Z " fill="#AD9B6A" transform="translate(168,359)"/>
<path d="M0 0 C1.77706209 2.66559313 2.87548273 5.0280615 4 8 C5.32 7.01 6.64 6.02 8 5 C8.1953125 11.0546875 8.1953125 11.0546875 8 13 C7.34 13.66 6.68 14.32 6 15 C4.68 13.02 3.36 11.04 2 9 C1.34 9.99 0.68 10.98 0 12 C-1.53166168 7.91556885 -0.63081652 4.20544343 0 0 Z " fill="#BE9E51" transform="translate(205,322)"/>
<path d="M0 0 C5.28 0 10.56 0 16 0 C16 0.99 16 1.98 16 3 C14.68 3.33 13.36 3.66 12 4 C12 3.34 12 2.68 12 2 C9.36 2.33 6.72 2.66 4 3 C4.33 4.65 4.66 6.3 5 8 C2.5 5.6875 2.5 5.6875 0 3 C0 2.01 0 1.02 0 0 Z " fill="#B19E71" transform="translate(190,311)"/>
<path d="M0 0 C2.97 0 5.94 0 9 0 C10.5625 2.8125 10.5625 2.8125 12 6 C11.67 6.99 11.34 7.98 11 9 C10.67 7.35 10.34 5.7 10 4 C9.01 4.33 8.02 4.66 7 5 C7 3.68 7 2.36 7 1 C6.34 1 5.68 1 5 1 C5 4.11257569 5.17361624 6.10765685 6 9 C4.68 9 3.36 9 2 9 C1.34 6.03 0.68 3.06 0 0 Z " fill="#C5A14C" transform="translate(193,313)"/>
<path d="M0 0 C0.66 0 1.32 0 2 0 C2.226875 0.804375 2.45375 1.60875 2.6875 2.4375 C3.120625 3.283125 3.55375 4.12875 4 5 C6.54775306 5.89386164 6.54775306 5.89386164 9 6 C8.67 7.32 8.34 8.64 8 10 C6.02 10 4.04 10 2 10 C-0.09350689 6.5980513 -0.17942163 3.94727588 0 0 Z " fill="#BE9E54" transform="translate(289,363)"/>
<path d="M0 0 C0.99 0 1.98 0 3 0 C3 0.99 3 1.98 3 3 C3.99 3 4.98 3 6 3 C6 3.99 6 4.98 6 6 C5.01 6 4.02 6 3 6 C3.495 6.45375 3.99 6.9075 4.5 7.375 C6 9 6 9 6 11 C3.03 10.505 3.03 10.505 0 10 C0 6.7 0 3.4 0 0 Z " fill="#BF9A42" transform="translate(275,361)"/>
<path d="M0 0 C0 0.66 0 1.32 0 2 C-0.99 2.495 -0.99 2.495 -2 3 C-2.68729254 5.11846285 -2.68729254 5.11846285 -3.125 7.5625 C-3.29257812 8.38878906 -3.46015625 9.21507812 -3.6328125 10.06640625 C-3.75398438 10.70449219 -3.87515625 11.34257812 -4 12 C-4.33 12 -4.66 12 -5 12 C-5 9.03 -5 6.06 -5 3 C-5.78375 3.474375 -6.5675 3.94875 -7.375 4.4375 C-8.88948678 5.33898023 -10.4235897 6.21179485 -12 7 C-9.14032181 0.62071789 -7.11769183 -0.40288822 0 0 Z " fill="#B99E56" transform="translate(276,313)"/>
<path d="M0 0 C1.98 0.495 1.98 0.495 4 1 C3.01 1 2.02 1 1 1 C1 4.3 1 7.6 1 11 C3.31 11.33 5.62 11.66 8 12 C8 10.35 8 8.7 8 7 C8.66 7.33 9.32 7.66 10 8 C9.34 9.98 8.68 11.96 8 14 C5.525 13.01 5.525 13.01 3 12 C3 12.66 3 13.32 3 14 C2.01 14 1.02 14 0 14 C-1.09321611 9.49048355 -2.13999677 4.27999354 0 0 Z " fill="#BAA56E" transform="translate(258,359)"/>
<path d="M0 0 C0.33 0 0.66 0 1 0 C1 2.31 1 4.62 1 7 C1.66 6.67 2.32 6.34 3 6 C3 4.02 3 2.04 3 0 C3.33 0 3.66 0 4 0 C4 1.65 4 3.3 4 5 C5.32 4.67 6.64 4.34 8 4 C8 4.66 8 5.32 8 6 C8.99 6.33 9.98 6.66 11 7 C7.34346173 9.43769218 5.30999899 9.23944439 1 9 C0 8 0 8 -0.09765625 6.15234375 C-0.06510417 4.1015625 -0.03255208 2.05078125 0 0 Z " fill="#BEA86F" transform="translate(154,364)"/>
<path d="M0 0 C2 1 2 1 3.125 3.375 C4 6 4 6 4 9 C4.66 9 5.32 9 6 9 C6 10.32 6 11.64 6 13 C6.66 13 7.32 13 8 13 C8 12.01 8 11.02 8 10 C8.66 10 9.32 10 10 10 C9.34 11.98 8.68 13.96 8 16 C7.01 16 6.02 16 5 16 C4.1605118 13.89828133 3.32860344 11.79353375 2.5 9.6875 C2.0359375 8.51574219 1.571875 7.34398437 1.09375 6.13671875 C0 3 0 3 0 0 Z " fill="#B59F69" transform="translate(181,332)"/>
<path d="M0 0 C3 1 3 1 4.640625 4.2734375 C5.18882687 5.63595866 5.72482909 7.00343713 6.25 8.375 C6.53101563 9.06078125 6.81203125 9.7465625 7.1015625 10.453125 C9.12917132 15.61248605 9.12917132 15.61248605 8 19 C5.90250005 16.64031256 5.03094296 15.45383006 4.8125 12.25 C4.874375 11.5075 4.93625 10.765 5 10 C4.34 10 3.68 10 3 10 C2.67 7.36 2.34 4.72 2 2 C1.01 2.33 0.02 2.66 -1 3 C-0.67 2.01 -0.34 1.02 0 0 Z " fill="#B6A06B" transform="translate(240,311)"/>
<path d="M0 0 C3.91402949 1.26941497 5.79072873 2.51167694 8 6 C6.02 6.99 4.04 7.98 2 9 C2 8.01 2 7.02 2 6 C1.34 6 0.68 6 0 6 C0 4.02 0 2.04 0 0 Z " fill="#C49F34" transform="translate(245,336)"/>
<path d="M0 0 C1.32 0 2.64 0 4 0 C4 1.65 4 3.3 4 5 C3.34 5 2.68 5 2 5 C2.33 6.65 2.66 8.3 3 10 C1.68 10 0.36 10 -1 10 C-0.67 6.7 -0.34 3.4 0 0 Z " fill="#C29D3B" transform="translate(325,361)"/>
<path d="M0 0 C0.33 0 0.66 0 1 0 C1.33 5.28 1.66 10.56 2 16 C1.01 15.67 0.02 15.34 -1 15 C-1.02685412 12.68756208 -1.04632841 10.3750373 -1.0625 8.0625 C-1.07410156 6.77472656 -1.08570313 5.48695313 -1.09765625 4.16015625 C-1 1 -1 1 0 0 Z " fill="#B79C53" transform="translate(329,320)"/>
<path d="M0 0 C1.134375 0.020625 2.26875 0.04125 3.4375 0.0625 C3.1075 1.3825 2.7775 2.7025 2.4375 4.0625 C2.4375 3.4025 2.4375 2.7425 2.4375 2.0625 C1.1175 2.0625 -0.2025 2.0625 -1.5625 2.0625 C-1.8925 4.0425 -2.2225 6.0225 -2.5625 8.0625 C-3.2225 8.0625 -3.8825 8.0625 -4.5625 8.0625 C-4.60491723 5.72955225 -4.60342937 3.39547433 -4.5625 1.0625 C-3.5625 0.0625 -3.5625 0.0625 0 0 Z " fill="#BC9F48" transform="translate(249.5625,360.9375)"/>
<path d="M0 0 C2 1 2 1 2.8515625 3.50390625 C3.10679687 4.51324219 3.36203125 5.52257812 3.625 6.5625 C3.88539063 7.57441406 4.14578125 8.58632812 4.4140625 9.62890625 C4.60742188 10.41136719 4.80078125 11.19382813 5 12 C4.01 12.495 4.01 12.495 3 13 C0.95204577 11.0373772 0.05023362 9.5722693 -0.19921875 6.73046875 C-0.18858877 4.48045617 -0.12958525 2.24614438 0 0 Z " fill="#EFFCFF" transform="translate(259,218)"/>
<path d="M0 0 C0.99 0 1.98 0 3 0 C3.33 4.29 3.66 8.58 4 13 C2.68 13.33 1.36 13.66 0 14 C0.33 11.03 0.66 8.06 1 5 C0.34 4.67 -0.32 4.34 -1 4 C-0.67 2.68 -0.34 1.36 0 0 Z " fill="#AC9A73" transform="translate(239,359)"/>
<path d="M0 0 C1.32 0.66 2.64 1.32 4 2 C3.67 2.66 3.34 3.32 3 4 C-2.28 4 -7.56 4 -13 4 C-13 3.01 -13 2.02 -13 1 C-12.34 1.33 -11.68 1.66 -11 2 C-9.12620395 2.07033769 -7.24998898 2.0843022 -5.375 2.0625 C-4.37210938 2.05347656 -3.36921875 2.04445313 -2.3359375 2.03515625 C-1.56507813 2.02355469 -0.79421875 2.01195312 0 2 C0 1.34 0 0.68 0 0 Z " fill="#B5A071" transform="translate(255,344)"/>
<path d="M0 0 C1.03060547 0.25136719 1.03060547 0.25136719 2.08203125 0.5078125 C2.98308594 0.71148437 3.88414062 0.91515625 4.8125 1.125 C6.15248047 1.43824219 6.15248047 1.43824219 7.51953125 1.7578125 C10.25246634 2.28880522 10.25246634 2.28880522 13 0 C14.35439668 2.70879335 14.06501451 5.00933268 14 8 C13.67 7.360625 13.34 6.72125 13 6.0625 C10.39302372 3.37405571 8.56214049 3.41605098 4.9375 3.17578125 C3 3 3 3 0 2 C0 1.34 0 0.68 0 0 Z " fill="#B8A679" transform="translate(281,310)"/>
<path d="M0 0 C0.66 0.33 1.32 0.66 2 1 C1.67 1.33 1.34 1.66 1 2 C4.96 2.33 8.92 2.66 13 3 C13.33 2.34 13.66 1.68 14 1 C14 1.99 14 2.98 14 4 C11.37472811 4.05382106 8.75055287 4.09358313 6.125 4.125 C5.37863281 4.14175781 4.63226563 4.15851563 3.86328125 4.17578125 C1.90805539 4.1933959 -0.04742021 4.10320189 -2 4 C-2.66 3.34 -3.32 2.68 -4 2 C-2.125 0.9375 -2.125 0.9375 0 0 Z " fill="#BFAE7A" transform="translate(156,344)"/>
<path d="M0 0 C1.65 0 3.3 0 5 0 C4.67 1.65 4.34 3.3 4 5 C3.01 5 2.02 5 1 5 C1.33 6.65 1.66 8.3 2 10 C1.34 10 0.68 10 0 10 C0 6.7 0 3.4 0 0 Z " fill="#C3A039" transform="translate(187,361)"/>
<path d="M0 0 C0.99 0.66 1.98 1.32 3 2 C2.01 2.66 1.02 3.32 0 4 C0.33 5.65 0.66 7.3 1 9 C-0.32 9 -1.64 9 -3 9 C-3.33 7.02 -3.66 5.04 -4 3 C-3.01 3 -2.02 3 -1 3 C-0.67 2.01 -0.34 1.02 0 0 Z " fill="#C4AE4F" transform="translate(316,363)"/>
<path d="M0 0 C2.475 0.495 2.475 0.495 5 1 C5 4.96 5 8.92 5 13 C3.68 13 2.36 13 1 13 C1 12.34 1 11.68 1 11 C1.99 11 2.98 11 4 11 C4 8.03 4 5.06 4 2 C2.68 2 1.36 2 0 2 C0 1.34 0 0.68 0 0 Z " fill="#B49D6A" transform="translate(267,359)"/>
<path d="M0 0 C2.16874252 0.50603992 3.99967627 0.99983813 6 2 C6 4.31 6 6.62 6 9 C4.68 9 3.36 9 2 9 C2.04125 7.88625 2.0825 6.7725 2.125 5.625 C2.41121859 1.95633975 2.41121859 1.95633975 0 0 Z " fill="#C7A13E" transform="translate(160,361)"/>
<path d="M0 0 C0 0.99 0 1.98 0 3 C1.32 3 2.64 3 4 3 C4.33 2.34 4.66 1.68 5 1 C6.32 1.66 7.64 2.32 9 3 C7 5 7 5 4.6171875 5.1953125 C3.71226562 5.17210937 2.80734375 5.14890625 1.875 5.125 C0.50988281 5.09792969 0.50988281 5.09792969 -0.8828125 5.0703125 C-1.58148438 5.04710937 -2.28015625 5.02390625 -3 5 C-3 4.01 -3 3.02 -3 2 C-2.01 1.34 -1.02 0.68 0 0 Z " fill="#B4A777" transform="translate(226,343)"/>
<path d="M0 0 C1.98 0 3.96 0 6 0 C6.66666667 2.66666667 7.33333333 5.33333333 8 8 C6.02 8 4.04 8 2 8 C2 7.34 2 6.68 2 6 C2.66 6 3.32 6 4 6 C4 4.35 4 2.7 4 1 C2.68 0.67 1.36 0.34 0 0 Z " fill="#B59752" transform="translate(325,360)"/>
<path d="M0 0 C1.32 0 2.64 0 4 0 C4.66 1.32 5.32 2.64 6 4 C6.66 3.34 7.32 2.68 8 2 C7.67 3.65 7.34 5.3 7 7 C5.35 6.67 3.7 6.34 2 6 C2 4.35 2 2.7 2 1 C1.34 0.67 0.68 0.34 0 0 Z " fill="#B49957" transform="translate(259,360)"/>
<path d="M0 0 C2.475 0.495 2.475 0.495 5 1 C5 1.66 5 2.32 5 3 C3.68 2.67 2.36 2.34 1 2 C1 5.3 1 8.6 1 12 C1.99 12.33 2.98 12.66 4 13 C2.68 13 1.36 13 0 13 C0 8.71 0 4.42 0 0 Z " fill="#A7976C" transform="translate(186,359)"/>
<path d="M0 0 C0.33 0.99 0.66 1.98 1 3 C1.66 3 2.32 3 3 3 C3 4.65 3 6.3 3 8 C0.03 7.505 0.03 7.505 -3 7 C-3 6.01 -3 5.02 -3 4 C-2.01 4 -1.02 4 0 4 C-0.33 3.01 -0.66 2.02 -1 1 C-0.67 0.67 -0.34 0.34 0 0 Z " fill="#C69C3A" transform="translate(306,362)"/>
<path d="M0 0 C0.66 0 1.32 0 2 0 C2.33 3.96 2.66 7.92 3 12 C2.01 11.67 1.02 11.34 0 11 C0 7.33333333 0 3.66666667 0 0 Z " fill="#C2A04C" transform="translate(195,360)"/>
<path d="M0 0 C0.33 0 0.66 0 1 0 C1.1953125 6.0546875 1.1953125 6.0546875 1 8 C0.34 8.66 -0.32 9.32 -1 10 C-1.99 8.35 -2.98 6.7 -4 5 C-3.34 5 -2.68 5 -2 5 C-1.34 3.35 -0.68 1.7 0 0 Z " fill="#B19654" transform="translate(212,327)"/>
<path d="M0 0 C4.62 0 9.24 0 14 0 C13.01 1.98 12.02 3.96 11 6 C10.34 4.68 9.68 3.36 9 2 C6.03 2 3.06 2 0 2 C0 1.34 0 0.68 0 0 Z " fill="#BB9953" transform="translate(156,312)"/>
<path d="M0 0 C2.31 0 4.62 0 7 0 C6.625 2.4375 6.625 2.4375 6 5 C5.01 5.495 5.01 5.495 4 6 C4 5.34 4 4.68 4 4 C2.68 3.34 1.36 2.68 0 2 C0 1.34 0 0.68 0 0 Z " fill="#EFF8FF" transform="translate(242,223)"/>
<path d="M0 0 C0.66 0 1.32 0 2 0 C2 0.66 2 1.32 2 2 C4.31 2.33 6.62 2.66 9 3 C9 3.66 9 4.32 9 5 C6.69 5 4.38 5 2 5 C2 4.34 2 3.68 2 3 C1.01 2.67 0.02 2.34 -1 2 C-0.67 1.34 -0.34 0.68 0 0 Z " fill="#C59C3F" transform="translate(271,342)"/>
<path d="M0 0 C0.66 0.33 1.32 0.66 2 1 C2.59355614 3.64860427 2.74209269 6.29197322 3 9 C1.68 9 0.36 9 -1 9 C-0.67 6.03 -0.34 3.06 0 0 Z " fill="#EDFCFF" transform="translate(223,221)"/>
<path d="M0 0 C0.66 0.33 1.32 0.66 2 1 C2 2.98 2 4.96 2 7 C1.01 6.67 0.02 6.34 -1 6 C-1.8125 4.0625 -1.8125 4.0625 -2 2 C-1.34 1.34 -0.68 0.68 0 0 Z " fill="#BF9F38" transform="translate(181,364)"/>
<path d="M0 0 C0 1.65 0 3.3 0 5 C-1.65 5.33 -3.3 5.66 -5 6 C-4.625 3.5625 -4.625 3.5625 -4 1 C-2 0 -2 0 0 0 Z " fill="#BE9D4B" transform="translate(242,313)"/>
<path d="M0 0 C0.99 0.33 1.98 0.66 3 1 C3.625 3.375 3.625 3.375 4 6 C3.34 6.66 2.68 7.32 2 8 C0.23537317 4.91190305 0 3.76687864 0 0 Z " fill="#C7B479" transform="translate(327,333)"/>
<path d="M0 0 C0.99 0.66 1.98 1.32 3 2 C3 2.99 3 3.98 3 5 C0.69 5 -1.62 5 -4 5 C-3.34 4.01 -2.68 3.02 -2 2 C-1.34 2 -0.68 2 0 2 C0 1.34 0 0.68 0 0 Z M0 2 C1 4 1 4 1 4 Z " fill="#EEFBFE" transform="translate(246,217)"/>
<path d="M0 0 C0.99 0 1.98 0 3 0 C3 2.31 3 4.62 3 7 C2.34 7 1.68 7 1 7 C0.67 4.69 0.34 2.38 0 0 Z " fill="#C1A03B" transform="translate(218,364)"/>
<path d="M0 0 C0.66 0 1.32 0 2 0 C2.33 1.65 2.66 3.3 3 5 C1.02 5 -0.96 5 -3 5 C-1.625 2.5 -1.625 2.5 0 0 Z " fill="#C29F3D" transform="translate(228,342)"/>
<path d="M0 0 C0.33 0 0.66 0 1 0 C1.33 2.97 1.66 5.94 2 9 C2.66 9 3.32 9 4 9 C4 9.66 4 10.32 4 11 C2.68 10.67 1.36 10.34 0 10 C0 6.7 0 3.4 0 0 Z " fill="#BC9F5E" transform="translate(165,336)"/>
<path d="M0 0 C1.98 0 3.96 0 6 0 C5.67 0.99 5.34 1.98 5 3 C2.9375 3.6875 2.9375 3.6875 1 4 C0.67 2.68 0.34 1.36 0 0 Z " fill="#BB9F4B" transform="translate(327,312)"/>
<path d="M0 0 C0.33 0 0.66 0 1 0 C1 2.97 1 5.94 1 9 C0.34 8.67 -0.32 8.34 -1 8 C-1 7.01 -1 6.02 -1 5 C-1.66 4.67 -2.32 4.34 -3 4 C-2.01 3.67 -1.02 3.34 0 3 C0 2.01 0 1.02 0 0 Z " fill="#BD9C41" transform="translate(240,361)"/>
<path d="M0 0 C0.33 0.99 0.66 1.98 1 3 C1.66 3.33 2.32 3.66 3 4 C2.34 5.32 1.68 6.64 1 8 C1 7.34 1 6.68 1 6 C0.01 6.33 -0.98 6.66 -2 7 C-1.34 4.69 -0.68 2.38 0 0 Z " fill="#AE9D6D" transform="translate(229,336)"/>
<path d="M0 0 C0.99 0 1.98 0 3 0 C3 1.32 3 2.64 3 4 C1.68 3.34 0.36 2.68 -1 2 C-0.67 1.34 -0.34 0.68 0 0 Z " fill="#EDFAFE" transform="translate(237,217)"/>
<path d="M0 0 C0 0.66 0 1.32 0 2 C-1.98 2.33 -3.96 2.66 -6 3 C-3.375 0 -3.375 0 0 0 Z " fill="#F3F9FF" transform="translate(240,214)"/>
<path d="M0 0 C1.9375 0.375 1.9375 0.375 4 1 C4.33 1.66 4.66 2.32 5 3 C3.35 2.67 1.7 2.34 0 2 C0 1.34 0 0.68 0 0 Z " fill="#EAF9FF" transform="translate(241,214)"/>
<path d="M0 0 C0.99 0.33 1.98 0.66 3 1 C2.01 1.99 1.02 2.98 0 4 C0 2.68 0 1.36 0 0 Z " fill="#E9F9FF" transform="translate(241,217)"/>
<path d="M0 0 C0.99 0 1.98 0 3 0 C3 0.66 3 1.32 3 2 C1.68 1.67 0.36 1.34 -1 1 C-0.67 0.67 -0.34 0.34 0 0 Z " fill="#E6FDFF" transform="translate(255,218)"/>
</svg>
